<?xml version="1.0" encoding="utf-8"?>
<!-- Generator: Adobe Illustrator 19.0.0, SVG Export Plug-In . SVG Version: 6.00 Build 0)  -->
<svg version="1.1" id="Layer_1" xmlns="http://www.w3.org/2000/svg" xmlns:xlink="http://www.w3.org/1999/xlink" x="0px" y="0px"
	 width="300px" height="300px" viewBox="100 -100 300 300" style="enable-background:new 100 -100 300 300;" xml:space="preserve">
<style type="text/css">
	.st0{fill:#FFFFFF;}
</style>
<g>
	<g>
		<path class="st0" d="M250-100c-82.8,0-150,67.2-150,150c0,82.8,67.2,150,150,150s150-67.2,150-150C400-32.8,332.8-100,250-100z
			 M250.5,120.8L250.5,120.8l-0.9,0h-64.1c0-46.9,41.2-46.8,50.3-59.1l1-5.6c-12.8-6.5-21.9-22.2-21.9-40.5
			c0-24.2,15.7-43.7,35.1-43.7s35.1,19.6,35.1,43.7c0,18.2-8.9,33.8-21.6,40.4l1.2,6.3c10,11.7,49.8,12.4,49.8,58.5H250.5z"/>
	</g>
</g>
</svg>
